<?xml version="1.0" standalone="no"?>
<!DOCTYPE svg PUBLIC "-//W3C//DTD SVG 20010904//EN"
 "http://www.w3.org/TR/2001/REC-SVG-20010904/DTD/svg10.dtd">
<svg version="1.0" xmlns="http://www.w3.org/2000/svg"
 width="1000.000000pt" height="1000.000000pt" viewBox="0 0 1000.000000 1000.000000"
 preserveAspectRatio="xMidYMid meet">

<g transform="translate(0.000000,1000.000000) scale(0.100000,-0.100000)"
fill="#000000" stroke="none">
<path d="M5040 8938 c-49 -15 -3810 -3772 -3842 -3837 -28 -58 -28 -140 -1
-201 16 -35 439 -463 1914 -1937 2063 -2060 1907 -1913 2024 -1913 91 1 122
23 372 273 166 166 238 245 252 277 27 60 27 150 0 210 -16 35 -360 385 -1592
1618 l-1572 1572 1572 1573 c1233 1233 1577 1582 1592 1617 27 60 27 150 0
210 -24 53 -462 497 -519 525 -42 22 -151 29 -200 13z"/>
<path d="M8065 8927 c-40 -20 -426 -401 -1932 -1908 -1342 -1344 -1887 -1895
-1898 -1921 -22 -54 -20 -152 5 -202 13 -28 615 -636 1912 -1932 2062 -2060
1908 -1914 2024 -1914 89 1 123 25 362 263 257 255 282 289 282 387 0 43 -7
80 -21 110 -15 35 -359 384 -1592 1618 l-1572 1572 1572 1573 c1084 1085 1578
1585 1592 1614 15 30 21 61 21 106 0 105 -20 134 -277 388 -126 125 -244 234
-263 244 -19 10 -64 20 -100 22 -54 3 -73 0 -115 -20z"/>
</g>
</svg>
