<?xml version="1.0" standalone="no"?>
<!DOCTYPE svg PUBLIC "-//W3C//DTD SVG 20010904//EN"
 "http://www.w3.org/TR/2001/REC-SVG-20010904/DTD/svg10.dtd">
<svg version="1.0" xmlns="http://www.w3.org/2000/svg"
 width="1000.000000pt" height="1000.000000pt" viewBox="0 0 1000.000000 1000.000000"
 preserveAspectRatio="xMidYMid meet">

<g transform="translate(0.000000,1000.000000) scale(0.100000,-0.100000)"
fill="#000000" stroke="none">
<path d="M1748 8936 c-53 -19 -91 -52 -320 -283 -145 -146 -213 -221 -227
-253 -28 -62 -28 -157 0 -213 14 -29 508 -529 1592 -1614 l1572 -1573 -1572
-1572 c-1233 -1234 -1577 -1583 -1592 -1618 -14 -30 -21 -67 -21 -110 0 -98
25 -132 282 -387 239 -238 273 -262 362 -263 116 0 -38 -146 2024 1914 1297
1296 1899 1904 1912 1932 25 50 27 148 5 202 -11 26 -556 577 -1898 1921
-1531 1531 -1891 1887 -1932 1907 -57 27 -128 31 -187 10z"/>
<path d="M4788 8936 c-54 -19 -92 -53 -320 -283 -143 -145 -214 -223 -227
-254 -27 -59 -27 -149 0 -209 15 -35 359 -384 1592 -1617 l1572 -1573 -1572
-1572 c-1232 -1233 -1576 -1583 -1592 -1618 -27 -60 -27 -150 0 -210 14 -32
86 -111 252 -277 250 -250 281 -272 372 -273 117 0 -39 -147 2024 1913 1475
1474 1898 1902 1914 1937 27 61 27 143 -1 201 -16 32 -522 544 -1914 1935
-1659 1657 -1898 1892 -1934 1902 -54 15 -120 14 -166 -2z"/>
</g>
</svg>
